<svg width="811" height="192" viewBox="0 0 811 192" fill="none" xmlns="http://www.w3.org/2000/svg">
<path d="M0 0H811V192H0V0Z" fill="#D4D4D4"/>
<path d="M0 0H811V192H0V0Z" stroke="#E5E7EB"/>
<path d="M359 84H452.453V108H359V84Z" stroke="#E5E7EB"/>
<path d="M360.466 95H358.705C358.6 94.4934 358.418 94.0483 358.158 93.6648C357.902 93.2812 357.589 92.9593 357.22 92.6989C356.856 92.4337 356.451 92.2348 356.006 92.1023C355.561 91.9697 355.097 91.9034 354.614 91.9034C353.733 91.9034 352.935 92.1259 352.22 92.571C351.51 93.0161 350.944 93.6719 350.523 94.5384C350.106 95.4048 349.898 96.4678 349.898 97.7273C349.898 98.9867 350.106 100.05 350.523 100.916C350.944 101.783 351.51 102.438 352.22 102.884C352.935 103.329 353.733 103.551 354.614 103.551C355.097 103.551 355.561 103.485 356.006 103.352C356.451 103.22 356.856 103.023 357.22 102.763C357.589 102.498 357.902 102.173 358.158 101.79C358.418 101.402 358.6 100.956 358.705 100.455H360.466C360.333 101.198 360.092 101.863 359.741 102.45C359.391 103.037 358.955 103.537 358.435 103.949C357.914 104.356 357.329 104.666 356.68 104.879C356.036 105.092 355.348 105.199 354.614 105.199C353.373 105.199 352.27 104.896 351.304 104.29C350.338 103.684 349.578 102.822 349.024 101.705C348.47 100.587 348.193 99.2614 348.193 97.7273C348.193 96.1932 348.47 94.8674 349.024 93.75C349.578 92.6326 350.338 91.7708 351.304 91.1648C352.27 90.5587 353.373 90.2557 354.614 90.2557C355.348 90.2557 356.036 90.3622 356.68 90.5753C357.329 90.7884 357.914 91.1009 358.435 91.5128C358.955 91.92 359.391 92.4171 359.741 93.0043C360.092 93.5866 360.333 94.2519 360.466 95ZM367.517 105.227C366.532 105.227 365.668 104.993 364.924 104.524C364.186 104.055 363.608 103.4 363.191 102.557C362.779 101.714 362.574 100.729 362.574 99.6023C362.574 98.4659 362.779 97.474 363.191 96.6264C363.608 95.7789 364.186 95.1207 364.924 94.652C365.668 94.1832 366.532 93.9489 367.517 93.9489C368.502 93.9489 369.363 94.1832 370.102 94.652C370.845 95.1207 371.423 95.7789 371.835 96.6264C372.252 97.474 372.46 98.4659 372.46 99.6023C372.46 100.729 372.252 101.714 371.835 102.557C371.423 103.4 370.845 104.055 370.102 104.524C369.363 104.993 368.502 105.227 367.517 105.227ZM367.517 103.722C368.265 103.722 368.88 103.53 369.363 103.146C369.846 102.763 370.204 102.259 370.436 101.634C370.668 101.009 370.784 100.331 370.784 99.6023C370.784 98.8731 370.668 98.1937 370.436 97.5639C370.204 96.9342 369.846 96.4252 369.363 96.0369C368.88 95.6487 368.265 95.4545 367.517 95.4545C366.769 95.4545 366.153 95.6487 365.67 96.0369C365.187 96.4252 364.83 96.9342 364.598 97.5639C364.366 98.1937 364.25 98.8731 364.25 99.6023C364.25 100.331 364.366 101.009 364.598 101.634C364.83 102.259 365.187 102.763 365.67 103.146C366.153 103.53 366.769 103.722 367.517 103.722ZM383.548 94.0909L379.514 105H377.81L373.776 94.0909H375.594L378.605 102.784H378.719L381.73 94.0909H383.548ZM389.944 105.227C388.893 105.227 387.986 104.995 387.224 104.531C386.466 104.062 385.881 103.409 385.469 102.571C385.062 101.728 384.859 100.748 384.859 99.6307C384.859 98.5133 385.062 97.5284 385.469 96.6761C385.881 95.8191 386.454 95.1515 387.188 94.6733C387.927 94.1903 388.789 93.9489 389.773 93.9489C390.342 93.9489 390.903 94.0436 391.457 94.233C392.011 94.4223 392.515 94.7301 392.969 95.1562C393.424 95.5777 393.786 96.1364 394.056 96.8324C394.326 97.5284 394.461 98.3854 394.461 99.4034V100.114H386.052V98.6648H392.756C392.756 98.0492 392.633 97.5 392.387 97.017C392.146 96.5341 391.8 96.1529 391.35 95.8736C390.905 95.5942 390.379 95.4545 389.773 95.4545C389.106 95.4545 388.528 95.6203 388.04 95.9517C387.558 96.2784 387.186 96.7045 386.925 97.2301C386.665 97.7557 386.535 98.3191 386.535 98.9205V99.8864C386.535 100.71 386.677 101.409 386.961 101.982C387.25 102.55 387.65 102.983 388.161 103.281C388.673 103.575 389.267 103.722 389.944 103.722C390.384 103.722 390.782 103.66 391.137 103.537C391.497 103.409 391.807 103.22 392.067 102.969C392.328 102.713 392.529 102.396 392.671 102.017L394.29 102.472C394.12 103.021 393.834 103.504 393.431 103.92C393.029 104.332 392.531 104.654 391.94 104.886C391.348 105.114 390.683 105.227 389.944 105.227ZM397.011 105V94.0909H398.63V95.7386H398.744C398.942 95.1989 399.302 94.7609 399.823 94.4247C400.344 94.0885 400.931 93.9205 401.585 93.9205C401.708 93.9205 401.862 93.9228 402.046 93.9276C402.231 93.9323 402.371 93.9394 402.465 93.9489V95.6534C402.408 95.6392 402.278 95.6179 402.075 95.5895C401.876 95.5563 401.665 95.5398 401.442 95.5398C400.912 95.5398 400.439 95.651 400.022 95.8736C399.61 96.0914 399.283 96.3944 399.042 96.7827C398.805 97.1662 398.687 97.6042 398.687 98.0966V105H397.011ZM410.304 105V90.4545H415.219C416.36 90.4545 417.293 90.6605 418.017 91.0724C418.747 91.4796 419.286 92.0312 419.637 92.7273C419.987 93.4233 420.162 94.1998 420.162 95.0568C420.162 95.9138 419.987 96.6927 419.637 97.3935C419.291 98.0942 418.756 98.6529 418.032 99.0696C417.307 99.4815 416.379 99.6875 415.248 99.6875H411.725V98.125H415.191C415.972 98.125 416.599 97.9901 417.073 97.7202C417.546 97.4503 417.89 97.0857 418.103 96.6264C418.32 96.1624 418.429 95.6392 418.429 95.0568C418.429 94.4744 418.32 93.9536 418.103 93.4943C417.89 93.035 417.544 92.6752 417.066 92.4148C416.587 92.1496 415.953 92.017 415.162 92.017H412.066V105H410.304ZM424.449 98.4375V105H422.772V90.4545H424.449V95.7955H424.591C424.846 95.232 425.23 94.7846 425.741 94.4531C426.257 94.117 426.944 93.9489 427.801 93.9489C428.544 93.9489 429.195 94.098 429.754 94.3963C430.313 94.6899 430.746 95.142 431.054 95.7528C431.366 96.3589 431.522 97.1307 431.522 98.0682V105H429.846V98.1818C429.846 97.3153 429.621 96.6454 429.172 96.1719C428.726 95.6937 428.109 95.4545 427.318 95.4545C426.769 95.4545 426.276 95.5705 425.841 95.8026C425.41 96.0346 425.069 96.3731 424.818 96.8182C424.572 97.2633 424.449 97.803 424.449 98.4375ZM439.021 105.227C438.036 105.227 437.172 104.993 436.428 104.524C435.69 104.055 435.112 103.4 434.695 102.557C434.283 101.714 434.077 100.729 434.077 99.6023C434.077 98.4659 434.283 97.474 434.695 96.6264C435.112 95.7789 435.69 95.1207 436.428 94.652C437.172 94.1832 438.036 93.9489 439.021 93.9489C440.005 93.9489 440.867 94.1832 441.606 94.652C442.349 95.1207 442.927 95.7789 443.339 96.6264C443.755 97.474 443.964 98.4659 443.964 99.6023C443.964 100.729 443.755 101.714 443.339 102.557C442.927 103.4 442.349 104.055 441.606 104.524C440.867 104.993 440.005 105.227 439.021 105.227ZM439.021 103.722C439.769 103.722 440.384 103.53 440.867 103.146C441.35 102.763 441.708 102.259 441.94 101.634C442.172 101.009 442.288 100.331 442.288 99.6023C442.288 98.8731 442.172 98.1937 441.94 97.5639C441.708 96.9342 441.35 96.4252 440.867 96.0369C440.384 95.6487 439.769 95.4545 439.021 95.4545C438.272 95.4545 437.657 95.6487 437.174 96.0369C436.691 96.4252 436.334 96.9342 436.102 97.5639C435.87 98.1937 435.754 98.8731 435.754 99.6023C435.754 100.331 435.87 101.009 436.102 101.634C436.334 102.259 436.691 102.763 437.174 103.146C437.657 103.53 438.272 103.722 439.021 103.722ZM451.267 94.0909V95.5114H445.613V94.0909H451.267ZM447.261 91.4773H448.937V101.875C448.937 102.348 449.006 102.704 449.143 102.94C449.285 103.172 449.465 103.329 449.683 103.409C449.905 103.485 450.14 103.523 450.386 103.523C450.571 103.523 450.722 103.513 450.841 103.494C450.959 103.471 451.054 103.452 451.125 103.438L451.466 104.943C451.352 104.986 451.193 105.028 450.99 105.071C450.786 105.118 450.528 105.142 450.216 105.142C449.742 105.142 449.278 105.04 448.824 104.837C448.374 104.633 448 104.323 447.701 103.906C447.408 103.49 447.261 102.964 447.261 102.33V91.4773ZM458.103 105.227C457.118 105.227 456.254 104.993 455.51 104.524C454.772 104.055 454.194 103.4 453.777 102.557C453.365 101.714 453.159 100.729 453.159 99.6023C453.159 98.4659 453.365 97.474 453.777 96.6264C454.194 95.7789 454.772 95.1207 455.51 94.652C456.254 94.1832 457.118 93.9489 458.103 93.9489C459.087 93.9489 459.949 94.1832 460.688 94.652C461.431 95.1207 462.009 95.7789 462.421 96.6264C462.837 97.474 463.046 98.4659 463.046 99.6023C463.046 100.729 462.837 101.714 462.421 102.557C462.009 103.4 461.431 104.055 460.688 104.524C459.949 104.993 459.087 105.227 458.103 105.227ZM458.103 103.722C458.851 103.722 459.466 103.53 459.949 103.146C460.432 102.763 460.79 102.259 461.022 101.634C461.254 101.009 461.37 100.331 461.37 99.6023C461.37 98.8731 461.254 98.1937 461.022 97.5639C460.79 96.9342 460.432 96.4252 459.949 96.0369C459.466 95.6487 458.851 95.4545 458.103 95.4545C457.355 95.4545 456.739 95.6487 456.256 96.0369C455.773 96.4252 455.416 96.9342 455.184 97.5639C454.952 98.1937 454.836 98.8731 454.836 99.6023C454.836 100.331 454.952 101.009 455.184 101.634C455.416 102.259 455.773 102.763 456.256 103.146C456.739 103.53 457.355 103.722 458.103 103.722Z" fill="white"/>
</svg>
