<svg width="763" height="192" viewBox="0 0 763 192" fill="none" xmlns="http://www.w3.org/2000/svg">
<path d="M0 0H762.672V192H0V0Z" fill="#E5E5E5"/>
<path d="M0 0H762.672V192H0V0Z" stroke="#E5E7EB"/>
<path d="M313.865 89.3636V101H312.456V89.3636H313.865ZM316.509 101V92.2727H317.804V93.6364H317.918C318.099 93.1705 318.393 92.8087 318.798 92.5511C319.204 92.2898 319.69 92.1591 320.259 92.1591C320.834 92.1591 321.313 92.2898 321.696 92.5511C322.082 92.8087 322.384 93.1705 322.599 93.6364H322.69C322.914 93.1856 323.249 92.8277 323.696 92.5625C324.143 92.2936 324.679 92.1591 325.304 92.1591C326.084 92.1591 326.723 92.4034 327.219 92.892C327.715 93.3769 327.963 94.1326 327.963 95.1591V101H326.622V95.1591C326.622 94.5152 326.446 94.0549 326.094 93.7784C325.741 93.5019 325.327 93.3636 324.849 93.3636C324.236 93.3636 323.76 93.5492 323.423 93.9205C323.086 94.2879 322.918 94.7538 322.918 95.3182V101H321.554V95.0227C321.554 94.5265 321.393 94.1269 321.071 93.8239C320.749 93.517 320.334 93.3636 319.827 93.3636C319.478 93.3636 319.152 93.4564 318.849 93.642C318.55 93.8277 318.308 94.0852 318.122 94.4148C317.94 94.7405 317.849 95.1174 317.849 95.5455V101H316.509ZM332.983 101.205C332.43 101.205 331.928 101.1 331.477 100.892C331.027 100.68 330.669 100.375 330.403 99.9773C330.138 99.5758 330.006 99.0909 330.006 98.5227C330.006 98.0227 330.104 97.6174 330.301 97.3068C330.498 96.9924 330.761 96.7462 331.091 96.5682C331.42 96.3902 331.784 96.2576 332.182 96.1705C332.583 96.0795 332.987 96.0076 333.392 95.9545C333.922 95.8864 334.352 95.8352 334.682 95.8011C335.015 95.7633 335.258 95.7008 335.409 95.6136C335.564 95.5265 335.642 95.375 335.642 95.1591V95.1136C335.642 94.553 335.489 94.1174 335.182 93.8068C334.879 93.4962 334.419 93.3409 333.801 93.3409C333.161 93.3409 332.659 93.4811 332.295 93.7614C331.932 94.0417 331.676 94.3409 331.528 94.6591L330.256 94.2045C330.483 93.6742 330.786 93.2614 331.165 92.9659C331.547 92.6667 331.964 92.4583 332.415 92.3409C332.869 92.2197 333.316 92.1591 333.756 92.1591C334.036 92.1591 334.358 92.1932 334.722 92.2614C335.089 92.3258 335.443 92.4602 335.784 92.6648C336.129 92.8693 336.415 93.178 336.642 93.5909C336.869 94.0038 336.983 94.5568 336.983 95.25V101H335.642V99.8182H335.574C335.483 100.008 335.331 100.21 335.119 100.426C334.907 100.642 334.625 100.826 334.273 100.977C333.92 101.129 333.491 101.205 332.983 101.205ZM333.188 100C333.718 100 334.165 99.8958 334.528 99.6875C334.896 99.4792 335.172 99.2102 335.358 98.8807C335.547 98.5511 335.642 98.2045 335.642 97.8409V96.6136C335.585 96.6818 335.46 96.7443 335.267 96.8011C335.078 96.8542 334.858 96.9015 334.608 96.9432C334.362 96.9811 334.121 97.0152 333.886 97.0455C333.655 97.072 333.468 97.0947 333.324 97.1136C332.975 97.1591 332.65 97.233 332.347 97.3352C332.047 97.4337 331.805 97.5833 331.619 97.7841C331.438 97.9811 331.347 98.25 331.347 98.5909C331.347 99.0568 331.519 99.4091 331.864 99.6477C332.212 99.8826 332.653 100 333.188 100ZM342.953 104.455C342.305 104.455 341.749 104.371 341.283 104.205C340.817 104.042 340.429 103.826 340.118 103.557C339.811 103.292 339.567 103.008 339.385 102.705L340.453 101.955C340.574 102.114 340.728 102.295 340.913 102.5C341.099 102.708 341.353 102.888 341.675 103.04C342 103.195 342.427 103.273 342.953 103.273C343.658 103.273 344.239 103.102 344.697 102.761C345.156 102.42 345.385 101.886 345.385 101.159V99.3864H345.271C345.173 99.5455 345.033 99.7424 344.851 99.9773C344.673 100.208 344.415 100.415 344.078 100.597C343.745 100.775 343.294 100.864 342.726 100.864C342.021 100.864 341.389 100.697 340.828 100.364C340.271 100.03 339.83 99.5455 339.504 98.9091C339.182 98.2727 339.021 97.5 339.021 96.5909C339.021 95.697 339.179 94.9186 339.493 94.2557C339.807 93.589 340.245 93.0739 340.805 92.7102C341.366 92.3428 342.014 92.1591 342.749 92.1591C343.317 92.1591 343.768 92.2538 344.101 92.4432C344.438 92.6288 344.696 92.8409 344.874 93.0795C345.055 93.3144 345.196 93.5076 345.294 93.6591H345.43V92.2727H346.726V101.25C346.726 102 346.555 102.61 346.214 103.08C345.877 103.553 345.423 103.9 344.851 104.119C344.283 104.343 343.65 104.455 342.953 104.455ZM342.908 99.6591C343.446 99.6591 343.9 99.536 344.271 99.2898C344.643 99.0436 344.925 98.6894 345.118 98.2273C345.311 97.7652 345.408 97.2121 345.408 96.5682C345.408 95.9394 345.313 95.3845 345.124 94.9034C344.934 94.4223 344.654 94.0455 344.283 93.7727C343.911 93.5 343.453 93.3636 342.908 93.3636C342.339 93.3636 341.866 93.5076 341.487 93.7955C341.112 94.0833 340.83 94.4697 340.641 94.9545C340.455 95.4394 340.362 95.9773 340.362 96.5682C340.362 97.1742 340.457 97.7102 340.646 98.1761C340.839 98.6383 341.124 99.0019 341.499 99.267C341.877 99.5284 342.347 99.6591 342.908 99.6591ZM352.839 101.182C351.999 101.182 351.273 100.996 350.663 100.625C350.057 100.25 349.589 99.7273 349.26 99.0568C348.934 98.3826 348.771 97.5985 348.771 96.7045C348.771 95.8106 348.934 95.0227 349.26 94.3409C349.589 93.6553 350.048 93.1212 350.635 92.7386C351.226 92.3523 351.915 92.1591 352.703 92.1591C353.158 92.1591 353.607 92.2348 354.05 92.3864C354.493 92.5379 354.896 92.7841 355.26 93.125C355.624 93.4621 355.913 93.9091 356.129 94.4659C356.345 95.0227 356.453 95.7083 356.453 96.5227V97.0909H349.726V95.9318H355.089C355.089 95.4394 354.991 95 354.794 94.6136C354.601 94.2273 354.324 93.9223 353.964 93.6989C353.608 93.4754 353.188 93.3636 352.703 93.3636C352.169 93.3636 351.707 93.4962 351.317 93.7614C350.93 94.0227 350.633 94.3636 350.425 94.7841C350.216 95.2045 350.112 95.6553 350.112 96.1364V96.9091C350.112 97.5682 350.226 98.1269 350.453 98.5852C350.684 99.0398 351.004 99.3864 351.413 99.625C351.822 99.8598 352.298 99.9773 352.839 99.9773C353.192 99.9773 353.51 99.928 353.794 99.8295C354.082 99.7273 354.33 99.5758 354.538 99.375C354.747 99.1705 354.908 98.9167 355.021 98.6136L356.317 98.9773C356.18 99.4167 355.951 99.803 355.629 100.136C355.307 100.466 354.91 100.723 354.436 100.909C353.963 101.091 353.43 101.182 352.839 101.182ZM363.175 101V89.3636H367.107C368.019 89.3636 368.766 89.5284 369.345 89.858C369.929 90.1837 370.36 90.625 370.641 91.1818C370.921 91.7386 371.061 92.3598 371.061 93.0455C371.061 93.7311 370.921 94.3542 370.641 94.9148C370.364 95.4754 369.936 95.9223 369.357 96.2557C368.777 96.5852 368.035 96.75 367.129 96.75H364.311V95.5H367.084C367.709 95.5 368.211 95.392 368.589 95.1761C368.968 94.9602 369.243 94.6686 369.413 94.3011C369.588 93.9299 369.675 93.5114 369.675 93.0455C369.675 92.5795 369.588 92.1629 369.413 91.7955C369.243 91.428 368.966 91.1402 368.584 90.9318C368.201 90.7197 367.694 90.6136 367.061 90.6136H364.584V101H363.175ZM374.49 89.3636V101H373.149V89.3636H374.49ZM379.514 101.205C378.961 101.205 378.459 101.1 378.009 100.892C377.558 100.68 377.2 100.375 376.935 99.9773C376.67 99.5758 376.537 99.0909 376.537 98.5227C376.537 98.0227 376.635 97.6174 376.832 97.3068C377.029 96.9924 377.293 96.7462 377.622 96.5682C377.952 96.3902 378.315 96.2576 378.713 96.1705C379.115 96.0795 379.518 96.0076 379.923 95.9545C380.454 95.8864 380.884 95.8352 381.213 95.8011C381.546 95.7633 381.789 95.7008 381.94 95.6136C382.096 95.5265 382.173 95.375 382.173 95.1591V95.1136C382.173 94.553 382.02 94.1174 381.713 93.8068C381.41 93.4962 380.95 93.3409 380.332 93.3409C379.692 93.3409 379.19 93.4811 378.827 93.7614C378.463 94.0417 378.207 94.3409 378.06 94.6591L376.787 94.2045C377.014 93.6742 377.317 93.2614 377.696 92.9659C378.079 92.6667 378.495 92.4583 378.946 92.3409C379.401 92.2197 379.848 92.1591 380.287 92.1591C380.567 92.1591 380.889 92.1932 381.253 92.2614C381.62 92.3258 381.974 92.4602 382.315 92.6648C382.66 92.8693 382.946 93.178 383.173 93.5909C383.401 94.0038 383.514 94.5568 383.514 95.25V101H382.173V99.8182H382.105C382.014 100.008 381.863 100.21 381.651 100.426C381.438 100.642 381.156 100.826 380.804 100.977C380.452 101.129 380.022 101.205 379.514 101.205ZM379.719 100C380.249 100 380.696 99.8958 381.06 99.6875C381.427 99.4792 381.704 99.2102 381.889 98.8807C382.079 98.5511 382.173 98.2045 382.173 97.8409V96.6136C382.116 96.6818 381.991 96.7443 381.798 96.8011C381.609 96.8542 381.389 96.9015 381.139 96.9432C380.893 96.9811 380.652 97.0152 380.418 97.0455C380.187 97.072 379.999 97.0947 379.855 97.1136C379.507 97.1591 379.181 97.233 378.878 97.3352C378.579 97.4337 378.336 97.5833 378.151 97.7841C377.969 97.9811 377.878 98.25 377.878 98.5909C377.878 99.0568 378.05 99.4091 378.395 99.6477C378.743 99.8826 379.185 100 379.719 100ZM389.507 101.182C388.689 101.182 387.984 100.989 387.393 100.602C386.803 100.216 386.348 99.6837 386.03 99.0057C385.712 98.3277 385.553 97.553 385.553 96.6818C385.553 95.7955 385.715 95.0133 386.041 94.3352C386.371 93.6534 386.829 93.1212 387.416 92.7386C388.007 92.3523 388.696 92.1591 389.484 92.1591C390.098 92.1591 390.651 92.2727 391.143 92.5C391.636 92.7273 392.039 93.0455 392.354 93.4545C392.668 93.8636 392.863 94.3409 392.939 94.8864H391.598C391.496 94.4886 391.268 94.1364 390.916 93.8295C390.568 93.5189 390.098 93.3636 389.507 93.3636C388.984 93.3636 388.526 93.5 388.132 93.7727C387.742 94.0417 387.437 94.4223 387.217 94.9148C387.001 95.4034 386.893 95.9773 386.893 96.6364C386.893 97.3106 387 97.8977 387.212 98.3977C387.428 98.8977 387.731 99.286 388.121 99.5625C388.515 99.839 388.977 99.9773 389.507 99.9773C389.856 99.9773 390.172 99.9167 390.456 99.7955C390.74 99.6742 390.981 99.5 391.178 99.2727C391.375 99.0455 391.515 98.7727 391.598 98.4545H392.939C392.863 98.9697 392.676 99.4337 392.376 99.8466C392.081 100.256 391.689 100.581 391.2 100.824C390.715 101.062 390.151 101.182 389.507 101.182ZM398.558 101.182C397.717 101.182 396.992 100.996 396.382 100.625C395.776 100.25 395.308 99.7273 394.979 99.0568C394.653 98.3826 394.49 97.5985 394.49 96.7045C394.49 95.8106 394.653 95.0227 394.979 94.3409C395.308 93.6553 395.767 93.1212 396.354 92.7386C396.945 92.3523 397.634 92.1591 398.422 92.1591C398.876 92.1591 399.325 92.2348 399.768 92.3864C400.212 92.5379 400.615 92.7841 400.979 93.125C401.342 93.4621 401.632 93.9091 401.848 94.4659C402.064 95.0227 402.172 95.7083 402.172 96.5227V97.0909H395.445V95.9318H400.808C400.808 95.4394 400.71 95 400.513 94.6136C400.32 94.2273 400.043 93.9223 399.683 93.6989C399.327 93.4754 398.907 93.3636 398.422 93.3636C397.888 93.3636 397.426 93.4962 397.036 93.7614C396.649 94.0227 396.352 94.3636 396.143 94.7841C395.935 95.2045 395.831 95.6553 395.831 96.1364V96.9091C395.831 97.5682 395.945 98.1269 396.172 98.5852C396.403 99.0398 396.723 99.3864 397.132 99.625C397.541 99.8598 398.017 99.9773 398.558 99.9773C398.911 99.9773 399.229 99.928 399.513 99.8295C399.801 99.7273 400.049 99.5758 400.257 99.375C400.465 99.1705 400.626 98.9167 400.74 98.6136L402.036 98.9773C401.899 99.4167 401.67 99.803 401.348 100.136C401.026 100.466 400.628 100.723 400.155 100.909C399.681 101.091 399.149 101.182 398.558 101.182ZM405.553 95.75V101H404.212V89.3636H405.553V93.6364H405.666C405.871 93.1856 406.178 92.8277 406.587 92.5625C407 92.2936 407.549 92.1591 408.234 92.1591C408.829 92.1591 409.35 92.2784 409.797 92.517C410.244 92.7519 410.59 93.1136 410.837 93.6023C411.087 94.0871 411.212 94.7045 411.212 95.4545V101H409.871V95.5455C409.871 94.8523 409.691 94.3163 409.331 93.9375C408.975 93.5549 408.481 93.3636 407.848 93.3636C407.409 93.3636 407.015 93.4564 406.666 93.642C406.321 93.8277 406.049 94.0985 405.848 94.4545C405.651 94.8106 405.553 95.2424 405.553 95.75ZM417.21 101.182C416.422 101.182 415.731 100.994 415.136 100.619C414.545 100.244 414.083 99.7197 413.75 99.0455C413.42 98.3712 413.256 97.5833 413.256 96.6818C413.256 95.7727 413.42 94.9792 413.75 94.3011C414.083 93.6231 414.545 93.0966 415.136 92.7216C415.731 92.3466 416.422 92.1591 417.21 92.1591C417.998 92.1591 418.688 92.3466 419.278 92.7216C419.873 93.0966 420.335 93.6231 420.665 94.3011C420.998 94.9792 421.165 95.7727 421.165 96.6818C421.165 97.5833 420.998 98.3712 420.665 99.0455C420.335 99.7197 419.873 100.244 419.278 100.619C418.688 100.994 417.998 101.182 417.21 101.182ZM417.21 99.9773C417.809 99.9773 418.301 99.8239 418.688 99.517C419.074 99.2102 419.36 98.8068 419.545 98.3068C419.731 97.8068 419.824 97.2652 419.824 96.6818C419.824 96.0985 419.731 95.5549 419.545 95.0511C419.36 94.5473 419.074 94.1402 418.688 93.8295C418.301 93.5189 417.809 93.3636 417.21 93.3636C416.612 93.3636 416.119 93.5189 415.733 93.8295C415.347 94.1402 415.061 94.5473 414.875 95.0511C414.689 95.5549 414.597 96.0985 414.597 96.6818C414.597 97.2652 414.689 97.8068 414.875 98.3068C415.061 98.8068 415.347 99.2102 415.733 99.517C416.119 99.8239 416.612 99.9773 417.21 99.9773ZM424.553 89.3636V101H423.212V89.3636H424.553ZM430.304 101.182C429.577 101.182 428.935 100.998 428.378 100.631C427.821 100.259 427.385 99.7367 427.071 99.0625C426.757 98.3845 426.599 97.5833 426.599 96.6591C426.599 95.7424 426.757 94.947 427.071 94.2727C427.385 93.5985 427.823 93.0777 428.384 92.7102C428.944 92.3428 429.592 92.1591 430.327 92.1591C430.895 92.1591 431.344 92.2538 431.673 92.4432C432.007 92.6288 432.26 92.8409 432.435 93.0795C432.613 93.3144 432.751 93.5076 432.849 93.6591H432.963V89.3636H434.304V101H433.009V99.6591H432.849C432.751 99.8182 432.611 100.019 432.429 100.261C432.247 100.5 431.988 100.714 431.651 100.903C431.313 101.089 430.865 101.182 430.304 101.182ZM430.486 99.9773C431.024 99.9773 431.478 99.8371 431.849 99.5568C432.221 99.2727 432.503 98.8807 432.696 98.3807C432.889 97.8769 432.986 97.2955 432.986 96.6364C432.986 95.9848 432.891 95.4148 432.702 94.9261C432.512 94.4337 432.232 94.0511 431.861 93.7784C431.49 93.5019 431.031 93.3636 430.486 93.3636C429.918 93.3636 429.444 93.5095 429.065 93.8011C428.69 94.089 428.408 94.4811 428.219 94.9773C428.033 95.4697 427.94 96.0227 427.94 96.6364C427.94 97.2576 428.035 97.822 428.224 98.3295C428.418 98.8333 428.702 99.2348 429.077 99.5341C429.455 99.8295 429.925 99.9773 430.486 99.9773ZM440.605 101.182C439.764 101.182 439.039 100.996 438.429 100.625C437.823 100.25 437.355 99.7273 437.026 99.0568C436.7 98.3826 436.537 97.5985 436.537 96.7045C436.537 95.8106 436.7 95.0227 437.026 94.3409C437.355 93.6553 437.813 93.1212 438.401 92.7386C438.991 92.3523 439.681 92.1591 440.469 92.1591C440.923 92.1591 441.372 92.2348 441.815 92.3864C442.259 92.5379 442.662 92.7841 443.026 93.125C443.389 93.4621 443.679 93.9091 443.895 94.4659C444.111 95.0227 444.219 95.7083 444.219 96.5227V97.0909H437.491V95.9318H442.855C442.855 95.4394 442.757 95 442.56 94.6136C442.366 94.2273 442.09 93.9223 441.73 93.6989C441.374 93.4754 440.954 93.3636 440.469 93.3636C439.935 93.3636 439.473 93.4962 439.082 93.7614C438.696 94.0227 438.399 94.3636 438.19 94.7841C437.982 95.2045 437.878 95.6553 437.878 96.1364V96.9091C437.878 97.5682 437.991 98.1269 438.219 98.5852C438.45 99.0398 438.77 99.3864 439.179 99.625C439.588 99.8598 440.063 99.9773 440.605 99.9773C440.957 99.9773 441.276 99.928 441.56 99.8295C441.848 99.7273 442.096 99.5758 442.304 99.375C442.512 99.1705 442.673 98.9167 442.787 98.6136L444.082 98.9773C443.946 99.4167 443.717 99.803 443.395 100.136C443.073 100.466 442.675 100.723 442.202 100.909C441.728 101.091 441.196 101.182 440.605 101.182ZM446.259 101V92.2727H447.554V93.5909H447.645C447.804 93.1591 448.092 92.8087 448.509 92.5398C448.925 92.2708 449.395 92.1364 449.918 92.1364C450.016 92.1364 450.139 92.1383 450.287 92.142C450.435 92.1458 450.546 92.1515 450.622 92.1591V93.5227C450.577 93.5114 450.473 93.4943 450.31 93.4716C450.151 93.4451 449.982 93.4318 449.804 93.4318C449.38 93.4318 449.001 93.5208 448.668 93.6989C448.338 93.8731 448.077 94.1155 447.884 94.4261C447.694 94.733 447.599 95.0833 447.599 95.4773V101H446.259Z" fill="#737373"/>
</svg>
