<svg width="40" height="40" viewBox="0 0 40 40" fill="none" xmlns="http://www.w3.org/2000/svg">
<g clip-path="url(#clip0_42_1585)">
<mask id="mask0_42_1585" style="mask-type:luminance" maskUnits="userSpaceOnUse" x="0" y="0" width="40" height="40">
<path d="M40 0H0V40H40V0Z" fill="white"/>
</mask>
<g mask="url(#mask0_42_1585)">
<path d="M29.7707 35.7202C25.2202 49.344 13.0826 53.5459 6.66516 36.6284C5.77984 34.3027 8.08718 33.4404 9.70186 32.4128C10.8074 31.711 11.3899 31.1055 11.3211 30.4771C11 27.5229 9.62846 19.2936 9.62846 19.2936L9.49085 19.0275C9.49085 19.0275 9.52296 18.9541 9.38993 19.0826C9.25232 19.2202 8.9358 20.6514 7.69268 20.6514C6.56883 20.6514 5.4358 20.1514 4.89452 16.6926C4.6881 15.4404 4.79819 12.156 6.19268 11.5596C6.76608 11.3165 7.2936 11.2293 7.80736 11.5229C8.32571 11.8165 7.21103 10.5138 12.945 5.74311C16.6697 2.63302 22.5551 2.17889 24.9312 2.70641C27.3074 3.23394 29.6789 4.39449 30.7294 6.85779C32.0046 9.83944 29.5413 12.1009 30.0872 18.8991C29.9863 21.3578 30.1239 26.7523 23.3624 28.5596C22.078 28.9037 22.4771 30.7798 24.4037 31.2385C27.4771 32.2018 29.7707 34.555 29.7707 35.7293" fill="white"/>
<path fill-rule="evenodd" clip-rule="evenodd" d="M29.7706 14.5504L29.7752 14.4862C29.9633 12.8165 30.1513 11.1972 31.0183 9.7431C31.3165 9.94494 31.2798 10.2018 31.188 10.4404C30.2752 12.789 30.3624 15.2293 30.4449 17.6697L30.4633 18.3119C30.5596 21.3578 29.7981 24.1284 27.7706 26.4541C27.0642 27.2615 26.1284 27.8211 25.1789 28.3027C24.1972 28.8073 23.9908 29.2248 24.2981 30.3027L24.3348 30.422C24.3991 30.6009 24.4633 30.7844 24.289 30.9633C24.0825 31.1743 23.8532 31.1147 23.6101 31.0459L23.5825 31.0413C21.3082 30.4044 19.1756 29.3412 17.2981 27.9082C17.0229 27.7064 16.8027 27.4358 16.5871 27.1697L16.5734 27.1514C16.4587 27.0137 16.4357 26.7936 16.5963 26.6743C16.7477 26.5596 16.8624 26.6514 16.9954 26.7569L17.0413 26.7981C18.0429 27.6109 19.2586 28.116 20.5413 28.2523C21.1559 28.3165 21.7614 28.2936 22.3761 28.2706C22.7156 28.2569 23.055 28.2431 23.3991 28.2477C23.8669 28.2477 24.2568 28.0321 24.6238 27.8257L24.7523 27.7523C26.0275 27.0413 27.2431 26.2477 28.0642 24.9679C28.8027 23.8211 29.2523 22.5734 29.5137 21.2569C29.844 19.6009 29.8165 17.922 29.789 16.2202C29.7752 15.6697 29.766 15.1101 29.766 14.5504H29.7706ZM6.67887 11.0917C7.68345 11.0137 8.2385 11.6055 8.71098 12.2981C9.27096 13.1444 9.62303 14.1111 9.7385 15.1193C9.76144 15.289 9.78437 15.4679 9.68345 15.6376C9.47703 15.6651 9.45868 15.5 9.4541 15.3807C9.43116 14.4312 9.00914 13.6055 8.58712 12.8073C8.28437 12.2339 7.84401 11.6789 7.14676 11.5413C6.35777 11.3807 5.633 12.0917 5.2752 13.0183C4.61006 14.7431 4.72474 16.4404 5.33942 18.1101C5.60547 18.8394 5.94034 19.5826 6.61465 20.0917C7.29355 20.6101 8.11465 20.5183 8.61465 19.8303L8.70639 19.7156C8.79813 19.5963 8.88988 19.4816 8.93575 19.3486C9.03208 19.0826 9.18345 18.8348 9.4541 18.8715C9.76602 18.9174 9.82107 19.2523 9.85318 19.5137C10.1377 21.9168 10.4742 24.3133 10.8624 26.7018L11.133 28.4816C11.2523 29.266 11.3899 30.3945 11.2981 30.8715C11.2922 30.905 11.2876 30.9387 11.2844 30.9725C11.266 31.1009 11.2568 31.2018 11.0917 31.2248C10.8669 31.2615 10.7706 31.133 10.7385 30.9312C10.633 30.1514 10.6009 29.8486 10.555 28.6559C10.5137 27.5 10.2981 26.3624 10.078 25.2202L9.84859 23.9816C9.61006 22.5688 9.37612 21.1376 9.35318 19.5321L9.26144 19.6697C8.91281 20.1881 8.633 20.6101 8.13758 20.7706C7.76983 20.9115 7.36681 20.9319 6.98672 20.8289C6.60662 20.7258 6.26911 20.5046 6.0229 20.1972C5.37652 19.4672 4.92244 18.5874 4.7018 17.6376C4.31648 16.078 4.24767 14.5596 4.74309 13.0229C4.98162 12.2844 5.83024 10.9725 6.67887 11.0963V11.0917ZM8.26602 16.9404C8.46786 17.0871 8.65134 17.2156 8.81648 16.6926C8.76602 14.7569 8.14217 13.5183 7.17428 13.4679C7.68804 14.1376 8.18345 14.789 8.22933 15.6926C8.03845 15.5952 7.87099 15.4574 7.7385 15.289C7.64676 15.1881 7.55501 15.0871 7.44034 15.0137L7.30272 14.9037C7.08254 14.7385 6.85777 14.5642 6.48621 14.6972C6.66052 14.9633 6.89905 15.1559 7.14217 15.3394C7.4174 15.555 7.69263 15.766 7.85777 16.0963C7.37153 16.4495 7.16052 16.9082 7.41281 17.4679C7.633 17.9495 7.95868 18.3486 8.60089 18.3761C8.57336 18.0871 8.38529 17.8761 8.19722 17.6697C7.96786 17.422 7.75226 17.1835 7.85318 16.8165C7.99997 16.7477 8.13758 16.8486 8.26602 16.9404Z" fill="black"/>
<path d="M48.4126 60.5046L-11.3901 60.3441C-11.3901 60.3441 -9.24793 46.3945 -3.52775 39.9312C-0.963531 37.0367 1.1695 34.1789 6.89885 32.1239C7.8805 31.7707 9.33463 28.0872 10.1145 27.7018C10.853 27.3349 10.3667 30.0963 11.0502 30.656C12.4439 31.8189 13.9152 32.8856 15.4539 33.8486C18.1557 35.5551 19.3989 39.1193 19.3989 39.1193C19.3989 39.1193 20.6099 35.6835 21.619 33.9954C22.33 32.8028 24.7062 29.2982 24.7062 29.2982C24.7062 29.2982 29.0502 30.656 30.6603 31.8532C31.6374 32.578 31.064 32.4174 35.4952 34.9496C39.3438 37.1468 43.119 43.1652 45.1282 48.1606C47.2658 53.4725 48.4126 60.5 48.4126 60.5V60.5046Z" fill="white"/>
<path fill-rule="evenodd" clip-rule="evenodd" d="M48.1192 60.5046C47.8119 59.266 47.5458 58.0275 47.2798 56.7844C47.1651 56.2339 47.0504 55.6835 46.9265 55.1422C46.5504 53.4449 46.055 51.7936 45.5091 50.1514C44.9831 48.5538 44.3392 46.9975 43.5825 45.4954C42.8309 43.9616 41.9725 42.4824 41.0137 41.0688C39.6376 39.0826 38.1421 37.1926 36.1605 35.7752C34.7201 34.7477 33.1238 33.977 31.5321 33.211C30.9678 32.9358 30.3899 33.0642 29.8256 33.1881L29.6421 33.2339C29.188 33.3257 28.7431 33.4266 28.2935 33.5275C27.7549 33.6502 27.2151 33.768 26.6743 33.8807C26.4403 33.9266 26.3532 34.0642 26.2843 34.2569L26.0091 35.0596C25.821 35.6193 25.6284 36.1789 25.4541 36.7431C25.3348 37.1193 25.133 37.2844 24.7339 37.2752C24.3944 37.2706 24.055 37.2752 23.7155 37.2844C23.3486 37.289 22.9862 37.2982 22.6238 37.289C21.9816 37.2752 21.6651 37.5046 21.7431 38.2752C21.8302 39.1009 21.8256 39.9312 21.8256 40.766C21.8256 41.2569 21.8256 41.7477 21.8394 42.2431C21.8853 43.5046 21.8853 44.7798 21.8623 46.0367C21.8165 48.3899 21.8165 50.7431 21.8165 53.1009C21.821 55.5413 21.8256 57.9862 21.7706 60.4495C21.5943 60.5011 21.4073 60.5043 21.2293 60.4587C21.1697 57.9771 21.1421 55.5367 21.1559 53.0963C21.1651 51.6376 21.1559 50.1743 21.1513 48.711C21.133 45.7798 21.1192 42.8486 21.2339 39.9174C21.2431 39.7569 21.188 39.6101 21.0091 39.6055C20.9045 39.7225 20.799 39.8387 20.6926 39.9541C20.1054 40.5963 19.5275 41.2293 19.2522 42.1514C18.8715 41.711 18.7155 41.1972 18.5596 40.7064C18.3898 40.1605 18.2247 39.6376 17.7798 39.2431C17.688 39.5092 17.688 39.7523 17.688 40V41.5137L17.6972 44.6789L17.6926 48.5504C17.688 51.3486 17.6834 54.1422 17.6926 56.9358C17.6972 57.2752 17.6926 57.6147 17.6788 57.9495C17.6605 58.8027 17.6376 59.656 17.7706 60.5H17.1192C17.059 59.5455 17.03 58.5894 17.0321 57.633V39.3303C17.0321 38.2293 16.6788 37.9174 15.6284 37.633C13.8853 37.1743 12.133 36.6743 10.7935 35.3532C10.2981 34.867 9.766 35.1101 9.32563 35.3073L9.27058 35.3348C8.87609 35.5183 8.46783 35.6514 8.05958 35.7844C7.50912 35.9679 6.95866 36.1514 6.44948 36.4404C6.34398 36.4954 6.24765 36.5596 6.14673 36.6238C5.95571 36.7527 5.75298 36.8633 5.54123 36.9541L5.44031 37C5.30269 37.0642 5.16967 37.1238 5.0137 36.977C4.83939 36.8211 4.84398 36.6559 4.92196 36.4495L5.18343 35.6651C5.41279 34.9679 5.64214 34.2752 5.9449 33.6009L5.99077 33.5092C6.05499 33.4037 6.11462 33.2982 6.05499 33.1559C5.8715 33.0321 5.70178 33.1238 5.5504 33.2064L5.46783 33.2523L5.36691 33.2982L5.27517 33.344C3.33022 34.3211 1.38526 35.2982 -0.220242 36.8303C-1.36504 37.9043 -2.42336 39.0669 -3.38538 40.3073C-5.23372 42.7627 -6.74128 45.4568 -7.86703 48.3165C-8.9496 51.0137 -9.88538 53.7752 -10.3579 56.6651C-10.4496 57.1972 -10.5322 57.7293 -10.6193 58.266L-10.9817 60.4541C-11.234 60.5 -11.4771 60.5 -11.7661 60.5C-11.5551 58.9862 -11.312 57.4725 -11.023 55.9633C-10.9175 55.4174 -10.7799 54.8807 -10.6377 54.344C-10.5551 54.0137 -10.4679 53.6881 -10.3946 53.3578C-10.1344 52.3248 -9.82363 51.3052 -9.46336 50.3027L-9.41749 50.1789C-8.46416 47.2984 -7.17062 44.5419 -5.56428 41.9679C-4.78926 40.7336 -3.91479 39.5645 -2.9496 38.4725C-1.20648 36.4862 0.720125 34.711 3.13756 33.5963C4.44948 32.9908 5.66967 32.266 6.88068 31.4954C7.22471 31.2752 7.38526 30.9587 7.5504 30.6422C7.61462 30.5275 7.67425 30.4082 7.74765 30.2936C8.42196 29.2156 9.12379 28.1651 10.1834 27.4128L10.2568 27.3578C10.3899 27.2523 10.5183 27.1559 10.7018 27.266C10.8669 27.3578 10.8577 27.5 10.8532 27.6514V27.7798C10.8807 28.5413 10.9449 29.2982 11.0091 30.055C11.0321 30.2982 11.133 30.5137 11.3761 30.6238C12.4036 31.0963 13.2798 31.7844 14.1559 32.4771C14.6834 32.8899 15.211 33.3027 15.7706 33.6697C17.12 34.5265 18.2384 35.7016 19.0275 37.0917C19.1192 37.2569 19.188 37.4312 19.266 37.633L19.3853 37.9358C19.8119 36.2156 20.7293 34.8073 21.6467 33.4082L22.1834 32.5826C22.2752 32.4358 22.3486 32.2798 22.422 32.1238C22.5229 31.9128 22.6238 31.7018 22.7798 31.5092C22.8926 31.3718 22.9631 31.2045 22.9826 31.0278C23.0022 30.8511 22.9699 30.6725 22.8899 30.5137C22.7889 30.2982 22.7339 30.0734 22.821 29.8394C23.211 29.7202 23.4174 29.9449 23.6376 30.1789L23.6834 30.2248C24.0963 29.9587 24.0504 29.6147 23.8348 29.2477C23.7614 29.1193 23.6972 28.9954 23.8073 28.8715C23.9128 28.7569 24.055 28.7706 24.1926 28.8119C25.8944 29.3027 27.5871 29.8211 29.1559 30.6743C29.3715 30.7936 29.5963 30.9037 29.821 31.0092C30.4311 31.3027 31.0412 31.5963 31.4862 32.0871C32.1926 32.867 33.0963 33.289 33.9999 33.711C34.5412 33.9679 35.0779 34.2156 35.5779 34.5459C36.6995 35.2458 37.7369 36.0723 38.6697 37.0092C39.7247 38.1238 40.7109 39.3027 41.5687 40.5688C42.321 41.6697 43.0366 42.7982 43.6605 43.9862C44.5102 45.6042 45.2459 47.2795 45.8623 49C46.4357 50.5917 46.9265 52.2064 47.3623 53.8394C47.6743 55.0229 47.8761 56.2248 48.0733 57.4312C48.2431 58.4404 48.4082 59.4495 48.6421 60.4587C48.4954 60.5046 48.3348 60.5046 48.1192 60.5046ZM18.1972 36.8899C17.138 35.6208 15.8967 34.5155 14.5137 33.6101C14.0996 33.3367 13.7028 33.038 13.3256 32.7156C12.7752 32.266 12.2247 31.8119 11.5733 31.5137C10.8027 31.1651 10.3899 30.6697 10.3623 29.8394V29.7293C10.3577 29.5504 10.3532 29.3715 10.3302 29.1972C10.2935 28.8486 9.88526 28.6651 9.66967 28.9266C9.59627 29.0183 9.50912 29.0917 9.42655 29.1697C9.30568 29.2692 9.19916 29.385 9.11003 29.5137C8.05499 31.1926 7.00912 32.8715 6.24765 34.711C6.14673 34.9587 6.07792 35.2844 6.28893 35.4862C6.45866 35.6514 6.67425 35.5642 6.88526 35.477C6.92171 35.4612 6.95842 35.4459 6.99535 35.4312L7.88985 35.0917C8.49077 34.8532 9.09627 34.6193 9.71554 34.4312C10.3715 34.2339 10.8715 34.3486 11.3348 34.867C11.8254 35.3891 12.4253 35.7964 13.0917 36.0596C13.821 36.3807 14.5688 36.6238 15.3165 36.8715C15.9678 37.0871 16.6192 37.3027 17.2568 37.5642C18.0412 37.8853 18.7706 38.3027 18.7614 39.3303C18.7614 39.4908 18.7981 39.6514 19.0642 39.6284C19.1972 39.2615 19.1972 38.8945 19.0137 38.5275L18.7752 38.0413C18.5917 37.6743 18.4082 37.2982 18.1972 36.8899ZM26.5137 30.2431L26.9265 30.3899L28.9678 31.3303C29.338 31.4983 29.708 31.6665 30.0779 31.8348C30.2247 31.9037 30.3853 31.9725 30.3853 32.1605C30.3853 32.3624 30.2247 32.3899 30.0779 32.4174L29.9954 32.4358C29.7732 32.4891 29.5515 32.5442 29.3302 32.6009C28.7614 32.7431 28.1926 32.8853 27.61 32.9725C26.3899 33.1559 25.7293 33.6468 25.3944 34.8211C25.3532 34.9679 25.3027 35.1147 25.2477 35.2569C25.1743 35.4633 25.1054 35.6697 25.0642 35.8715C24.9495 36.422 24.5963 36.477 24.1697 36.5137L23.3577 36.6055C22.9128 36.6514 22.4678 36.7064 22.0183 36.7339C21.6513 36.7569 21.4403 36.9449 21.3027 37.2385C21.1972 37.4587 21.0779 37.6697 20.9632 37.8807C20.7431 38.2798 20.5183 38.6789 20.3853 39.1193C20.321 39.3211 20.2293 39.6238 19.8486 39.6147C19.9403 38.5137 20.2155 37.4449 20.6513 36.4358C20.9495 35.7477 21.3669 35.1376 21.7843 34.5321C22.133 34.0183 22.4816 33.5046 22.7614 32.9541C23.2752 31.922 24.0275 31.1009 24.7889 30.2798L25.0275 30.0183C25.188 29.8394 25.2981 29.789 25.5137 29.8715C25.8486 30.0092 26.1834 30.1284 26.5229 30.2477L26.5137 30.2431Z" fill="black"/>
<path fill-rule="evenodd" clip-rule="evenodd" d="M30 43.1835C29.7339 41.5596 29.7706 40.0183 30.5183 38.4541C31.8532 39.9587 31.8211 41.711 31.7935 43.422L31.7844 44.1422C32.0137 44.2293 32.1376 44.1468 32.2477 44.0734L32.3578 44.0091C32.9312 43.7569 33.1055 43.8624 33.2018 44.5C33.3761 45.6559 33.3853 46.8257 33.3945 47.9908L33.399 48.4954C33.399 48.8119 33.2293 49.0413 33.0091 49.188C32.4197 49.6253 31.8866 50.1337 31.422 50.7018C31.1192 51.0367 30.8165 51.3761 30.4862 51.6835C30.0321 52.0963 29.2614 52.2339 28.7614 51.8532L28.2798 51.4908C27.555 50.9495 26.8348 50.4128 26.1468 49.8211C25.8145 49.5647 25.5606 49.2205 25.4138 48.8273C25.2671 48.4341 25.2334 48.0077 25.3165 47.5963C25.3945 47.1192 25.4357 46.633 25.477 46.1422C25.5137 45.7569 25.5458 45.3715 25.5963 44.9862C25.7247 44.0367 25.9036 43.9266 26.766 44.3027C26.844 44.3348 26.922 44.3578 27 44.3761C27.2064 44.4312 27.422 44.4908 27.6101 44.7431L27.7018 44.055C27.7752 43.5046 27.844 42.9954 27.8394 42.477V42.4495C27.8394 42.3761 27.8394 42.2844 27.8027 42.2569C26.977 41.6972 27.1284 40.9633 27.4954 40.2523L27.5413 40.1605C27.8117 39.7138 27.9968 39.2207 28.0871 38.7064C28.0871 38.6513 28.1376 38.6009 28.1789 38.5504L28.2339 38.4862L28.3027 38.5L28.3715 38.5183C28.4403 38.9954 28.6926 39.3761 28.9403 39.7614C29.1513 40.0871 29.3624 40.4128 29.4679 40.7936C29.5871 41.2477 29.5137 41.6284 29.188 41.9174C28.8669 42.2064 28.8211 42.5413 28.8669 42.9266L28.8991 43.2018C28.9266 43.4174 28.9541 43.6376 28.9633 43.8578C29.0046 44.6697 29.1284 44.7706 30.0137 44.6101C30.1009 44.1513 30.0734 43.6926 30 43.1835ZM31.344 49.6972C31.3899 49.6513 31.4449 49.6101 31.4954 49.5688C31.6041 49.4713 31.719 49.3809 31.8394 49.2981C32.4816 48.8853 32.7935 48.3532 32.6835 47.5413C32.6238 47.0963 32.6376 46.6468 32.6376 46.1926C32.6468 45.9587 32.6468 45.7247 32.6422 45.4908V45.3807C32.6422 45.1697 32.6422 44.9541 32.4587 44.7844C32.2477 44.8302 32.0504 44.922 31.8578 45.0137C31.5825 45.1376 31.3073 45.2614 31.0091 45.2614C30.6697 45.2614 30.3302 45.2706 29.9908 45.2844C28.9082 45.3211 27.8257 45.3624 26.7844 44.9266C26.4266 44.7752 26.2844 44.8899 26.266 45.266C26.2201 46.1835 26.1055 47.0917 25.9403 47.9908L25.9357 48.0091C25.8807 48.2981 25.8211 48.6376 26.1009 48.8715C27.0932 49.6846 28.0901 50.492 29.0917 51.2936C29.4495 51.5871 29.8165 51.5229 30.0596 51.1743C30.2543 50.9147 30.4674 50.6694 30.6972 50.4403C30.9128 50.211 31.1376 49.9724 31.3394 49.6972H31.344ZM30.4128 41.0871C30.4679 41.1147 30.5275 41.1468 30.5871 41.1238L31.1376 41.055C30.7706 41.4312 30.5458 41.4358 30.1697 41.0917C30.2568 41.0046 30.3348 41.0458 30.4128 41.0871Z" fill="black"/>
<path d="M30.8029 2.28438C31.491 4.11007 32.124 5.48621 32.0047 7.40823C31.9589 8.11465 31.4451 9.22933 31.2708 9.90823C31.0277 10.844 30.5185 11.7018 30.4589 12.6926C30.4497 12.8165 30.3579 12.8991 30.1469 12.9403C29.7891 12.4725 29.7433 11.8761 29.7249 11.3257C29.6699 9.60548 29.5873 7.89447 29.202 6.21557C29.0919 5.74309 28.913 5.29355 28.7249 4.71557C28.5552 6.2752 28.5552 6.26603 27.1378 6.28897C24.5873 6.33484 22.046 6.48621 19.5231 6.85319C18.8029 6.95869 18.7433 6.91282 18.2479 5.9908C17.7433 6.33025 17.757 6.93576 17.5047 7.39447C16.7387 8.8119 15.7524 10.0137 14.2937 10.7844C13.7891 11.0504 12.7616 11.0137 11.5965 10.7064C11.1607 12.0963 10.1056 13.3027 10.4772 14.9358C10.541 15.2034 10.5453 15.4818 10.4899 15.7512C10.4344 16.0207 10.3205 16.2747 10.1561 16.4954C9.9818 16.7431 9.78914 16.7844 9.5506 16.711C9.30748 16.6376 9.42216 16.4403 9.42675 16.2706C9.44969 14.7752 9.0873 13.3578 8.23868 12.1284C7.45886 10.9908 5.61941 11.2752 5.03226 12.5596C4.92675 12.7981 4.87629 13.0825 4.50473 13.3119C4.43593 12.4725 4.42216 11.7064 4.50932 10.9495C4.68492 9.18685 5.0699 7.45138 5.65611 5.77979C6.51843 3.34892 8.03036 1.20081 10.0277 -0.431217C12.1531 -2.14485 14.7394 -3.18895 17.4589 -3.43122C18.0093 -3.49085 18.5552 -3.59636 19.1056 -3.6514C21.038 -3.83802 22.9877 -3.59039 24.8121 -2.92663C27.28 -2.05507 29.4084 -0.715621 30.5231 1.78438C30.5919 1.94493 30.6928 2.09172 30.8029 2.28438ZM8.97721 18.4908C9.1607 18.4403 9.28914 18.4495 9.34418 18.6238C9.73868 19.7339 9.75703 20.8899 9.70198 22.0413C9.67904 22.4816 8.94969 23.0137 8.33959 23.0963C7.75702 23.1697 7.21574 23.0917 6.8717 22.5458C6.68822 22.2569 6.82583 21.9495 6.93134 21.6055C6.27537 21.6238 5.70657 21.8807 5.11941 21.6055C4.33959 21.2431 4.26161 20.8991 4.88088 20.3211L5.04143 20.1238C4.7662 19.7752 4.31666 19.7247 4.03225 19.4128C3.71574 19.078 3.66987 18.7614 3.92675 18.4266C4.2662 17.9908 4.80748 17.9082 5.17446 18.1972C5.31666 18.2981 5.43592 18.4358 5.51849 18.5917C5.69109 18.9371 5.95813 19.2265 6.28859 19.4263C6.61906 19.626 6.9994 19.7279 7.38547 19.7202C8.22033 19.7431 8.68363 19.2477 8.97721 18.4908Z" fill="black"/>
<path d="M20.0917 23.8899C19.9816 24.7018 20.8303 25.3807 21.578 25.0826C21.3807 24.3578 20.6238 24.2844 20.0917 23.8899Z" fill="white"/>
<path fill-rule="evenodd" clip-rule="evenodd" d="M19.6009 24.6697C20.1697 25.7431 21.2523 26.0413 22.4312 25.4174C22.9129 25.1238 23.1147 24.6559 23.289 24.2202C23.3638 24.0423 23.3965 23.8496 23.3846 23.6571C23.3727 23.4645 23.3164 23.2773 23.2202 23.1101C22.578 21.9266 21.789 21.8945 20.8395 22.0734C19.8073 22.2706 19.1055 23.7431 19.6009 24.6697ZM21.578 25.0825C20.8303 25.3807 19.9817 24.7018 20.0917 23.8899C20.2615 24.0137 20.4495 24.1055 20.6376 24.1972C21.0459 24.3945 21.445 24.5871 21.578 25.0825Z" fill="black"/>
<path d="M19.3578 21.6514C19.734 21.8211 19.711 22.078 19.5505 22.3394C19.4312 22.5459 19.2523 22.6697 19.0138 22.5229C18.7936 22.3853 18.844 22.1972 18.9679 22.0183C19.0688 21.8807 19.1055 21.6835 19.3578 21.6514Z" fill="black"/>
<path d="M23.4127 19.5688C23.1833 19.578 23.0136 19.5504 22.8622 19.4358C22.7338 19.344 22.7155 19.2156 22.743 19.0734C22.7659 18.922 22.8898 18.8991 23.009 18.9082C23.6558 18.9404 24.2934 18.8853 24.8944 18.6147C25.0411 18.5459 25.1696 18.6055 25.2476 18.7339C25.3255 18.8761 25.3393 19.0229 25.2109 19.1651C24.9815 19.4312 24.6971 19.578 24.3393 19.5688H23.4173H23.4127Z" fill="black"/>
<path d="M27.2291 16.2844C27.0365 15.8486 26.775 15.5871 26.3209 15.5642C26.0456 15.5504 25.9998 15.3303 25.9126 15.1147C26.0044 15.0459 26.0732 14.9449 26.1557 14.9403C27.1236 14.8624 28.1007 14.8578 29.0686 14.9358C29.3438 14.9541 29.4952 15.3027 29.2154 15.4128C28.7567 15.5963 28.642 16.0183 28.3667 16.3211C27.9906 16.7339 27.6695 16.7385 27.2291 16.2844ZM18.4677 14.9266C19.0273 14.9587 19.5273 14.9725 20.0273 15.0183C20.1924 15.0321 20.3943 15.1009 20.3943 15.3257C20.3943 15.5825 20.1833 15.5642 20.0135 15.5596C19.7245 15.5596 19.5686 15.6835 19.4401 15.9541C19.2842 16.2936 19.1236 16.6559 18.6145 16.633C18.1328 16.6101 17.9218 16.3027 17.7842 15.9358C17.6833 15.6743 17.5548 15.5504 17.2796 15.5596C17.1236 15.5642 16.9539 15.5504 16.9356 15.3348C16.9172 15.1055 17.0732 15.0596 17.2567 15.0046C17.6513 14.8994 18.0628 14.8729 18.4677 14.9266Z" fill="black"/>
<path d="M21.5228 12.1193C21.2659 12.8899 21.22 12.8257 20.4677 12.6514C19.2659 12.3761 18.0503 11.7706 16.7842 12.4541C16.6925 12.5046 16.5549 12.5 16.4356 12.4908C16.2705 12.4816 16.0595 12.5504 15.9723 12.3394C15.876 12.1101 16.0411 11.9587 16.2154 11.867C17.1191 11.4082 17.9356 10.7523 19.0778 10.8716C19.665 10.9312 20.2705 10.7431 20.8806 10.7615C21.7429 10.7936 21.9081 11.0229 21.6145 11.8578L21.5228 12.1238V12.1193ZM29.2062 11.1376C29.6466 11.4404 29.7796 11.9082 30.0457 12.2844C30.0956 12.3468 30.1204 12.4256 30.1153 12.5053C30.1102 12.585 30.0756 12.66 30.0182 12.7156C29.9081 12.8394 29.7705 12.844 29.6466 12.7706C28.7705 12.266 27.8622 12.4771 26.9861 12.7156C26.5182 12.8394 26.3163 12.6789 26.1971 12.2936C26.1191 12.0321 26.064 11.766 26.0319 11.4954C25.9723 11.0459 26.3484 10.9495 26.6283 10.9358C27.4769 10.8945 28.3439 10.7293 29.2062 11.1376Z" fill="black"/>
</g>
</g>
<defs>
<clipPath id="clip0_42_1585">
<path d="M0 20C0 8.95431 8.95431 0 20 0C31.0457 0 40 8.95431 40 20C40 31.0457 31.0457 40 20 40C8.95431 40 0 31.0457 0 20Z" fill="white"/>
</clipPath>
</defs>
</svg>
